# xmcd
#
# Track frame offsets:
#	150
#	18725
#	32548
#	52007
#	72438
#	90001
#	107305
#	122242
#	136960
#	147932
#	167383
#	181200
#	203264
#	222073
#	235754
#	252841
#	266142
#	290463
#	304689
#	323814
#	340474
#
# Disc length: 4759 seconds
#
# Revision: 1
# Processed by: cddbd v1.5.2PL0 Copyright (c) Steve Scherf et al.
# Submitted via: audiograbber 1.83.01
#
DISCID=24129515
DTITLE=Lightnin' Hopkins (US) - Blues In My Bottle (1961) Walkin' This Road By 
DTITLE=Myself (1962)
DYEAR=2018
DGENRE=Blues
TTITLE0=Buddy Brown's Blues
TTITLE1=Wine Spondee-O-Dee
TTITLE2=Sail On, Little Girl, Sail On
TTITLE3=DC-7
TTITLE4=Death Bells
TTITLE5=Goin' To Dallas To See My Pony Run
TTITLE6=Jailhouse Blues
TTITLE7=Blues In The Bottle
TTITLE8=Beans, Beans, Beans
TTITLE9=Catfish Blues
TTITLE10=My Grandpa Is Old Too!
TTITLE11=Walkin' This Road By Myself
TTITLE12=Black Gal
TTITLE13=How Many More Years I Got To Let You Dog Me Around
TTITLE14=Baby Don't You Tear My Clothes
TTITLE15=Worried Life Blues
TTITLE16=Happy Blues For John Glenn
TTITLE17=Good Morning Little School Girl
TTITLE18=The Devil Jumped The Black Man
TTITLE19=Coffee Blues
TTITLE20=Black Cadillac
EXTD=
EXTT0=
EXTT1=
EXTT2=
EXTT3=
EXTT4=
EXTT5=
EXTT6=
EXTT7=
EXTT8=
EXTT9=
EXTT10=
EXTT11=
EXTT12=
EXTT13=
EXTT14=
EXTT15=
EXTT16=
EXTT17=
EXTT18=
EXTT19=
EXTT20=
PLAYORDER=
